<?xml version="1.0" standalone="no"?>
<!DOCTYPE svg PUBLIC "-//W3C//DTD SVG 1.1//EN" "http://www.w3.org/Graphics/SVG/1.1/DTD/svg11.dtd" >
<svg xmlns="http://www.w3.org/2000/svg">
<metadata></metadata>
<defs>
<font id="scepticablack" horiz-adv-x="1208" >
<font-face units-per-em="2048" ascent="1536" descent="-512" />
<missing-glyph horiz-adv-x="475" />
<glyph unicode="&#xfb01;" horiz-adv-x="1193" d="M27 797l8 184l158 31v28q0 189 115.5 293.5t307.5 104.5q99 0 173 -23t153 -80l-125 -170q-83 41 -166 41q-92 0 -122.5 -31t-30.5 -116v-37h594v-1022h-308v815l-286 -22v-793h-305v788z" />
<glyph unicode="&#xfb02;" horiz-adv-x="1175" d="M27 797l8 184l158 31v28q0 189 115.5 293.5t307.5 104.5q153 0 255.5 -41t201.5 -158v-1239h-305v1184q-59 22 -117 22q-92 0 -122.5 -31t-30.5 -116v-37h215l16 -205l-231 -24v-793h-305v788z" />
<glyph unicode="&#xfb03;" horiz-adv-x="1783" d="M27 797l8 184l158 31v28q0 189 115.5 293.5t307.5 104.5q92 0 162 -20.5t142 -67.5q110 88 288 88q99 0 173 -23t153 -80l-125 -170q-87 41 -166 41q-92 0 -122.5 -31t-30.5 -116v-37h591v-1022h-305v815l-286 -22v-793h-306v788h-286v-788h-305v788zM498 1022h286v18 q0 74 11 136q-79 30 -144 30q-92 0 -122.5 -31t-30.5 -116v-37z" />
<glyph unicode="&#xfb04;" horiz-adv-x="1767" d="M27 797l8 184l158 31v28q0 189 115.5 293.5t307.5 104.5q92 0 162 -20.5t142 -67.5q110 88 288 88q139 0 235 -40.5t222 -158.5v-1239h-305v1184q-59 22 -117 22q-92 0 -122.5 -31t-30.5 -116v-37h215l16 -205l-231 -24v-793h-306v788h-286v-788h-305v788zM498 1022h286 v18q0 74 11 136q-79 30 -144 30q-92 0 -122.5 -31t-30.5 -116v-37z" />
<glyph horiz-adv-x="2048" />
<glyph horiz-adv-x="2048" />
<glyph unicode="&#xd;" horiz-adv-x="2048" />
<glyph unicode=" "  horiz-adv-x="475" />
<glyph unicode="&#x09;" horiz-adv-x="475" />
<glyph unicode="&#xa0;" horiz-adv-x="475" />
<glyph unicode="!" horiz-adv-x="475" d="M72 145q0 75 43 117.5t123 42.5q79 0 122 -43t43 -117q0 -78 -42.5 -118.5t-122.5 -40.5q-82 0 -124 40.5t-42 118.5zM96 1407h281l-15 -619l-16 -397h-217l-16 397z" />
<glyph unicode="&#x22;" horiz-adv-x="710" d="M80 1337h252l-21 -376l-209 -21zM379 1337h252l-21 -376l-209 -21z" />
<glyph unicode="#" horiz-adv-x="1036" d="M61 346l19 164h180l12 121h-180l19 162h176l22 221l183 -17l-21 -204h125l25 221l180 -17l-21 -204h195l-19 -162h-190l-12 -121h190l-18 -164h-187l-24 -205l-178 17l16 188h-123l-22 -205l-181 17l17 188h-183zM446 510h123l11 121h-123z" />
<glyph unicode="$" horiz-adv-x="1210" d="M63 84l99 215q110 -53 189 -71.5t181 -18.5q159 0 216 51q38 32 38 107q0 53 -32 77.5t-92 36.5l-275 58q-180 39 -256 149q-61 83 -61 199q0 201 147 293q84 55 250 75v154h240v-154q170 -18 321 -90l-88 -204q-165 69 -373 69q-120 0 -168 -29q-45 -26 -45 -83t35 -84 q30 -22 121 -41l188 -39q192 -38 287 -123q102 -92 102 -248q0 -217 -151 -315q-110 -73 -281 -93v-147h-241v149q-107 7 -185.5 31.5t-165.5 75.5z" />
<glyph unicode="%" horiz-adv-x="1570" d="M51 891q0 156 86.5 248t247.5 92q160 0 247 -92t87 -248q0 -154 -87.5 -246t-246.5 -92q-161 0 -247.5 91.5t-86.5 246.5zM270 891q0 -77 24.5 -107t90.5 -30q64 0 89.5 31t25.5 106q0 76 -25.5 108.5t-89.5 32.5q-65 0 -90 -31.5t-25 -109.5zM285 51l813 1188l172 -117 l-813 -1194zM854 309q0 156 86.5 248t247.5 92q159 0 245.5 -92t86.5 -248q0 -154 -86.5 -246t-245.5 -92q-161 0 -247.5 91.5t-86.5 246.5zM1073 309q0 -77 24.5 -107t90.5 -30q64 0 88 30.5t24 106.5q0 77 -24.5 109.5t-87.5 32.5q-65 0 -90 -32t-25 -110z" />
<glyph unicode="&#x26;" horiz-adv-x="1245" d="M43 420q0 106 48.5 197t129.5 137v12q-51 51 -70.5 105.5t-19.5 129.5q0 157 119.5 252t345.5 95q130 0 232 -27.5t198 -87.5l-100 -184q-89 38 -162.5 54.5t-171.5 16.5q-87 0 -129.5 -30.5t-42.5 -98.5q0 -41 12.5 -71t25.5 -43.5t44 -40.5l411 -355l78 170l234 -76 l-119 -262l137 -125l-158 -194l-112 92q-139 -113 -373 -113q-282 0 -419.5 107.5t-137.5 339.5zM340 444q0 -121 63.5 -178t204.5 -57q75 0 116 8t71 29l-404 356q-25 -10 -38 -53.5t-13 -104.5z" />
<glyph unicode="'" horiz-adv-x="411" d="M80 1337h252l-21 -376l-209 -21z" />
<glyph unicode="(" horiz-adv-x="536" d="M72 559q0 238 55 427.5t164 359.5l205 -103q-70 -179 -102 -334t-32 -350t32 -350t102 -334l-205 -102q-109 170 -164 359t-55 427z" />
<glyph unicode=")" horiz-adv-x="536" d="M41 -125q70 178 101.5 333t31.5 351t-31.5 351t-101.5 333l205 103q109 -170 164 -359.5t55 -427.5t-55 -427t-164 -359z" />
<glyph unicode="*" horiz-adv-x="620" d="M20 1161l175 39l-123 139l141 105l94 -164l101 164l139 -105l-123 -139l176 -39l-57 -166l-168 72l16 -174h-166l8 172l-159 -70z" />
<glyph unicode="+" horiz-adv-x="806" d="M61 563v230h234v239h237v-239h234v-230h-234v-233h-237v233h-234z" />
<glyph unicode="," horiz-adv-x="477" d="M74 143q0 76 42.5 120t123.5 44q163 0 163 -162q0 -166 -127 -385l-135 37l33 193q-100 34 -100 153z" />
<glyph unicode="-" horiz-adv-x="696" d="M61 438v215h574v-215h-574z" />
<glyph unicode="." horiz-adv-x="485" d="M74 145q0 74 45 118t123 44q81 0 125.5 -43.5t44.5 -118.5q0 -78 -44 -119.5t-126 -41.5q-79 0 -123.5 42t-44.5 119z" />
<glyph unicode="/" horiz-adv-x="632" d="M-20 -6l452 1392l213 -67l-452 -1393z" />
<glyph unicode="0" horiz-adv-x="1191" d="M45 662q0 376 172 548q135 138 379 138q246 0 381 -138q170 -173 170 -548q0 -373 -172 -551q-136 -136 -379 -136q-247 0 -383 136q-168 174 -168 551zM352 662q0 -282 70 -375q58 -74 174 -74q115 0 176 74q68 94 68 375q0 282 -68 376q-59 72 -176 72q-118 0 -174 -72 q-70 -97 -70 -376z" />
<glyph unicode="1" horiz-adv-x="735" d="M43 1112l211 94l143 125l174 -14v-1317h-303v942l-174 -18z" />
<glyph unicode="2" horiz-adv-x="1067" d="M39 1169q115 99 219 139t256 40q221 0 350 -100.5t129 -284.5q0 -116 -50 -211.5t-157 -194.5l-337 -309l2 -8h530v-240h-915v233l505 484q123 119 123 229q0 76 -48 118t-142 42t-162.5 -25.5t-163.5 -95.5z" />
<glyph unicode="3" horiz-adv-x="1079" d="M16 113l119 198q77 -50 150.5 -72t167.5 -22q138 0 196 47.5t58 157.5q0 93 -47.5 131.5t-145.5 38.5h-278v233h278q76 0 108.5 35.5t32.5 108.5q0 79 -52 110t-167 31q-73 0 -130 -14.5t-124 -53.5l-110 175q98 69 198.5 100t221.5 31q75 0 140 -11t125.5 -38t104 -68 t69 -105t25.5 -145q0 -167 -149 -242v-8q207 -90 207 -313q0 -94 -26 -168.5t-73 -126t-114.5 -85.5t-147 -49.5t-174.5 -15.5q-148 0 -253 32t-210 108z" />
<glyph unicode="4" horiz-adv-x="1169" d="M41 182v199l600 952l340 -22v-887h129l10 -217l-139 -17v-190h-297v182h-643zM387 424h297v258l18 291l-18 2l-129 -266z" />
<glyph unicode="5" horiz-adv-x="1095" d="M29 117l108 194q137 -94 305 -94q86 0 143 14t89 45t44.5 72t12.5 103q0 43 -8.5 75.5t-20.5 54t-36.5 36.5t-44.5 23t-57 12t-62 4.5t-70 0.5q-85 0 -219 -24l-96 57l20 629h809v-225h-549l-8 -226l158 19q105 -2 190.5 -26.5t154 -74t106.5 -134.5t38 -199 q0 -235 -155.5 -357.5t-438.5 -122.5q-224 0 -413 144z" />
<glyph unicode="6" horiz-adv-x="1124" d="M53 645q2 153 31 273t78.5 200t119.5 132.5t150.5 75t175.5 22.5q118 0 209.5 -27t190.5 -86l-107 -197q-71 33 -133.5 49.5t-149.5 16.5q-126 0 -176 -53.5t-67 -204.5l188 57h37q226 0 346.5 -124.5t120.5 -338.5q0 -108 -33.5 -192.5t-85 -134.5t-120 -83t-132.5 -45 t-129 -12q-259 0 -386.5 159.5t-127.5 512.5zM360 551q0 -178 48 -260t155 -82q116 0 160.5 56.5t44.5 174.5q0 122 -41 175t-139 53q-135 0 -228 -37v-80z" />
<glyph unicode="7" horiz-adv-x="1044" d="M45 1079v240h948v-229q-156 -224 -260 -478q-112 -270 -174 -549l-14 -63h-316l19 74q84 321 184 563q85 210 221 442h-608z" />
<glyph unicode="8" horiz-adv-x="1148" d="M51 401q0 111 52.5 196t154.5 130v8q-54 26 -93.5 90.5t-39.5 153.5q0 122 61 207t159.5 123.5t227.5 38.5q66 0 127.5 -11t120.5 -37t102.5 -64.5t70 -98t26.5 -133.5q0 -77 -36.5 -149.5t-92.5 -98.5v-8q102 -54 154.5 -131t52.5 -203q0 -108 -41.5 -193t-113.5 -138.5 t-166.5 -81.5t-203.5 -28q-250 0 -386 108t-136 320zM350 401q0 -113 54.5 -157.5t168.5 -44.5q224 0 224 202q0 111 -55 157t-169 46q-113 0 -168 -46t-55 -157zM418 981q0 -67 37.5 -106t117.5 -39q81 0 117.5 37t36.5 108q0 152 -154 152q-155 0 -155 -152z" />
<glyph unicode="9" horiz-adv-x="1124" d="M53 877q0 109 33 194t84.5 136t120.5 84t133.5 45t132.5 12q260 0 385 -160t125 -514q-2 -153 -31.5 -273t-79.5 -199.5t-120.5 -131.5t-150.5 -74.5t-173 -22.5q-121 0 -211 24t-192 85l90 205q76 -37 143.5 -52.5t159.5 -15.5q118 0 175 62.5t68 193.5l-188 -57h-37 q-226 0 -346.5 123t-120.5 336zM350 879q0 -121 41.5 -173.5t140.5 -52.5q135 0 228 37v76q0 179 -49.5 264.5t-153.5 85.5q-115 0 -161 -59.5t-46 -177.5z" />
<glyph unicode=":" horiz-adv-x="454" d="M74 145q0 74 45 118t123 44q81 0 125.5 -43.5t44.5 -118.5q0 -78 -44 -119.5t-126 -41.5q-79 0 -123.5 42t-44.5 119zM74 770q0 74 45 118t123 44q81 0 125.5 -43.5t44.5 -118.5q0 -78 -44 -120t-126 -42q-79 0 -123.5 42.5t-44.5 119.5z" />
<glyph unicode=";" horiz-adv-x="448" d="M70 770q0 74 45 118t123 44q81 0 125.5 -43.5t44.5 -118.5q0 -78 -44 -120t-126 -42q-79 0 -123.5 42.5t-44.5 119.5zM74 143q0 76 42.5 120t123.5 44q163 0 163 -162q0 -166 -127 -385l-135 37l33 193q-100 34 -100 153z" />
<glyph unicode="&#x3c;" horiz-adv-x="661" d="M41 614v117l446 369l134 -144l-293 -284l293 -283l-134 -141z" />
<glyph unicode="=" horiz-adv-x="696" d="M61 389v213h574v-213h-574zM61 735v213h574v-213h-574z" />
<glyph unicode="&#x3e;" horiz-adv-x="661" d="M41 389l293 285l-293 282l133 144l447 -369v-117l-447 -366z" />
<glyph unicode="?" horiz-adv-x="1132" d="M10 1235q208 154 494 154q97 0 179.5 -12.5t158 -43.5t128.5 -79t84 -122.5t31 -170.5q0 -75 -23 -136.5t-57 -102t-86.5 -73.5t-97.5 -51.5t-104 -36.5q-89 -27 -116.5 -65t-27.5 -117h-272q0 74 5.5 122t21 92.5t46 75t78 58t119.5 53.5l23 8q51 18 79 31t54.5 34.5 t37.5 51t11 72.5q0 92 -57 131t-211 39q-191 0 -381 -113zM279 143q0 75 42.5 118.5t120.5 43.5q82 0 125 -42.5t43 -117.5q0 -159 -168 -159q-163 0 -163 157z" />
<glyph unicode="@" horiz-adv-x="1562" d="M51 532q0 158 55.5 289t152.5 220.5t231.5 138.5t291.5 49q152 0 283 -43.5t231.5 -127.5t157.5 -217t57 -300q0 -185 -93 -282t-238 -97q-60 0 -124.5 26.5t-103.5 73.5l-131 -106h-39q-190 0 -285.5 99t-95.5 277q0 161 99.5 265t261.5 104q141 0 237 -80l60 35l71 -33 v-385q0 -78 72 -78q86 0 86 181q0 237 -132.5 359t-373.5 122q-232 0 -363.5 -129t-131.5 -361q0 -234 129.5 -360.5t365.5 -126.5q111 0 190 17.5t173 58.5l72 -168q-102 -56 -202 -83.5t-233 -27.5q-167 0 -301 43t-230 127.5t-148 216.5t-52 303zM643 528 q0 -91 33.5 -134.5t111.5 -43.5q71 0 115 41v287q-54 31 -115 31q-82 0 -113.5 -44t-31.5 -137z" />
<glyph unicode="A" horiz-adv-x="1337" d="M31 0l442 1319h412l422 -1319h-324l-61 207h-514l-60 -207h-317zM489 449h355l-150 593h-43z" />
<glyph unicode="B" horiz-adv-x="1228" d="M102 0v1319h537q463 0 463 -352q0 -90 -37.5 -156t-108.5 -96v-8q90 -25 150.5 -110t60.5 -191q0 -101 -38.5 -180.5t-105.5 -128t-152 -73t-183 -24.5h-586zM414 244h245q111 0 156 35.5t45 130.5q0 89 -47.5 124t-140.5 35h-258v-325zM414 803h217q92 0 127 29.5 t35 111.5q0 78 -48 105.5t-129 27.5h-202v-274z" />
<glyph unicode="C" horiz-adv-x="1169" d="M61 659q0 156 31.5 275.5t86.5 197t135.5 127t172 69.5t203.5 20q230 0 428 -109l-92 -209q-90 40 -162 57t-164 17q-94 0 -154 -20.5t-100 -72t-56.5 -136t-16.5 -216.5q0 -174 32.5 -269t101 -133t193.5 -38q92 0 164 17t160 57l94 -215q-198 -109 -428 -109 q-112 0 -203.5 20.5t-172 69.5t-135.5 127t-86.5 197.5t-31.5 275.5z" />
<glyph unicode="D" horiz-adv-x="1251" d="M102 0v1319h467q317 0 469 -155.5t152 -504.5q0 -354 -151.5 -506.5t-469.5 -152.5h-467zM414 244h178q87 0 141 21t86 72.5t43.5 126.5t11.5 195q0 123 -12 199t-45.5 127.5t-89 71.5t-145.5 20h-168v-833z" />
<glyph unicode="E" horiz-adv-x="1120" d="M102 0v1319h932v-246h-618v-266h534v-242h-534v-319h643v-246h-957z" />
<glyph unicode="F" horiz-adv-x="1054" d="M100 0v1319h904v-246h-588v-278h518v-246h-518v-549h-316z" />
<glyph unicode="G" horiz-adv-x="1269" d="M61 659q0 351 161 520t478 169q240 0 437 -113l-97 -209q-96 42 -169 61t-171 19q-173 0 -248 -101.5t-75 -345.5t68 -343t231 -99q116 0 205 39v319l-263 23v205h562v-783l-156 -34l-115 69l-237 -84h-54q-130 0 -230.5 38.5t-174.5 119.5t-113 214.5t-39 315.5z" />
<glyph unicode="H" horiz-adv-x="1284" d="M102 0v1319h312v-498h456v498h312v-1319h-312v573h-456v-573h-312z" />
<glyph unicode="I" horiz-adv-x="516" d="M102 0v1319h312v-1319h-312z" />
<glyph unicode="J" horiz-adv-x="962" d="M12 43l66 209q116 -35 237 -35q89 0 137.5 29t71.5 101.5t23 207.5v764h313v-766q0 -137 -25 -239t-68.5 -167t-111 -104t-144.5 -54.5t-177 -15.5t-173.5 16.5t-148.5 53.5z" />
<glyph unicode="K" horiz-adv-x="1249" d="M102 0v1319h318v-498h151l273 498h346l-361 -617l379 -702h-352l-268 551h-168v-551h-318z" />
<glyph unicode="L" horiz-adv-x="1091" d="M102 0v1319h318v-1079h631v-240h-949z" />
<glyph unicode="M" horiz-adv-x="1654" d="M102 0v1319h451l274 -963h9l268 963h448v-1319h-303v604l6 275h-12l-262 -879h-322l-258 879h-14l8 -275v-604h-293z" />
<glyph unicode="N" horiz-adv-x="1306" d="M102 0v1319h312l331 -574l173 -325l8 4l-11 405v490h289v-1319h-338l-340 561l-141 270l-10 -4l12 -413v-414h-285z" />
<glyph unicode="O" horiz-adv-x="1327" d="M61 659q0 363 185 539q156 150 418 150q261 0 417 -150q185 -176 185 -539q0 -362 -185 -538q-156 -150 -417 -150q-262 0 -418 150q-185 176 -185 538zM373 659q0 -249 84 -356q72 -92 207 -92q134 0 206 92q84 107 84 356q0 250 -84 357q-72 92 -206 92 q-135 0 -207 -92q-84 -107 -84 -357z" />
<glyph unicode="P" horiz-adv-x="1196" d="M102 0v1319h535q508 0 508 -461q0 -114 -40 -203t-112 -145.5t-167.5 -85.5t-209.5 -29h-202v-395h-312zM414 639h188q124 0 176.5 50t52.5 169q0 124 -48.5 171.5t-176.5 47.5h-192v-438z" />
<glyph unicode="Q" horiz-adv-x="1347" d="M61 659q0 359 189 539q156 150 424 150t424 -150q188 -179 188 -539q0 -166 -49 -314.5t-160 -242.5l158 -135l-188 -180l-238 197q-70 -13 -135 -13q-268 0 -424 150q-189 180 -189 538zM373 659q0 -244 88 -356q72 -92 213 -92t213 92q88 112 88 356q0 245 -88 357 q-72 92 -213 92t-213 -92q-88 -112 -88 -357z" />
<glyph unicode="R" horiz-adv-x="1212" d="M102 0v1319h539q245 0 375.5 -116t130.5 -335q0 -132 -61.5 -235t-178.5 -166l219 -467h-331l-174 410h-207v-410h-312zM414 651h202q215 0 215 205q0 122 -47 171.5t-166 49.5h-204v-426z" />
<glyph unicode="S" horiz-adv-x="1198" d="M51 92l105 223q116 -52 201.5 -70t197.5 -18q153 0 221 52q49 38 49 100q0 65 -45 96q-57 42 -159 62l-224 45q-180 38 -268 153q-72 92 -72 213q0 192 131 293q135 107 408 107q272 0 463 -99l-92 -219q-185 72 -377 72q-142 0 -189 -39q-34 -27 -34 -86q0 -52 28 -80 q40 -37 133 -55l201 -41q215 -44 315 -142q103 -103 103 -247q0 -223 -164 -332q-156 -107 -428 -107q-172 0 -278.5 26t-225.5 93z" />
<glyph unicode="T" horiz-adv-x="1148" d="M41 1077v242h1067v-242h-377v-1077h-315v1077h-375z" />
<glyph unicode="U" horiz-adv-x="1284" d="M102 559v760h312v-838q0 -133 55 -198.5t176 -65.5q120 0 173.5 65t53.5 199v838h310v-762q0 -161 -36.5 -275.5t-109 -181.5t-170 -97t-229.5 -30q-128 0 -223.5 30.5t-167 98.5t-108 182t-36.5 275z" />
<glyph unicode="V" horiz-adv-x="1284" d="M20 1319h330l150 -492l145 -561h12l148 561l137 492h322l-437 -1319h-366z" />
<glyph unicode="W" horiz-adv-x="1865" d="M20 1319h322l129 -563l86 -477h23l65 407l129 633h332l141 -660l62 -380h18l90 481l123 559h305l-332 -1319h-421l-91 489l-63 400h-16l-56 -395l-92 -494h-424z" />
<glyph unicode="X" horiz-adv-x="1292" d="M45 0l395 688l-379 631h351l106 -203l119 -258h8l221 461h346l-368 -635l405 -684h-348l-127 225l-133 269h-8l-250 -494h-338z" />
<glyph unicode="Y" horiz-adv-x="1251" d="M25 1319h335l160 -379l109 -272h10l270 651h322l-447 -950v-369h-313v356z" />
<glyph unicode="Z" horiz-adv-x="1095" d="M51 0v213l606 868l-204 -10h-385v248h954v-201l-612 -878l211 10h423v-250h-993z" />
<glyph unicode="[" horiz-adv-x="518" d="M102 -250v1577h396v-223h-138v-1131h138v-223h-396z" />
<glyph unicode="\" horiz-adv-x="632" d="M-6 1319l215 67l453 -1392l-216 -68z" />
<glyph unicode="]" horiz-adv-x="518" d="M20 -27h138v1131h-138v223h396v-1577h-396v223z" />
<glyph unicode="^" horiz-adv-x="772" d="M51 1087l318 252h32l320 -249l-100 -138l-242 142l-234 -131z" />
<glyph unicode="_" horiz-adv-x="696" d="M0 -55h696v-205h-696v205z" />
<glyph unicode="`" horiz-adv-x="559" d="M115 1380l239 129l135 -325l-172 -66z" />
<glyph unicode="a" horiz-adv-x="1146" d="M49 332q0 161 109.5 244.5t318.5 91.5l258 10v35q0 53 -47 80q-58 32 -160 32q-164 0 -319 -49l-59 189q195 79 411 79q233 0 350 -83q129 -93 129 -295v-422q0 -52 11.5 -89t40.5 -83l-150 -88l-149 94l-265 -101h-26q-213 0 -333 98.5t-120 256.5zM358 344 q0 -69 43 -102t136 -33q132 0 198 47v242l-258 -19q-119 -7 -119 -135z" />
<glyph unicode="b" horiz-adv-x="1193" d="M102 33v1329h306v-354q115 39 219 39q254 0 386 -140t132 -397q0 -535 -500 -535h-14l-244 91l-74 -78zM408 250q81 -41 198 -41q74 0 121.5 19.5t71.5 62t32.5 93.5t8.5 130q0 174 -55.5 239.5t-176.5 65.5q-108 0 -200 -35v-534z" />
<glyph unicode="c" horiz-adv-x="1019" d="M51 510q0 162 59 281t184.5 187.5t307.5 68.5q192 0 350 -58l-53 -198q-142 28 -274 28q-150 0 -209.5 -72t-59.5 -233q0 -158 63 -231.5t206 -73.5q130 0 270 31l63 -203q-160 -60 -356 -60q-275 0 -413 143t-138 390z" />
<glyph unicode="d" horiz-adv-x="1206" d="M61 510q0 256 132.5 396.5t386.5 140.5q104 0 219 -39v354h305v-1335l-211 -37l-74 76l-248 -91h-14q-496 0 -496 535zM365 512q0 -79 8.5 -130t33.5 -93t72.5 -61t122.5 -19q116 0 197 41v534q-92 35 -199 35q-60 0 -101.5 -14t-72.5 -48.5t-46 -95t-15 -149.5z" />
<glyph unicode="e" horiz-adv-x="1167" d="M51 510q0 258 137.5 397.5t401.5 139.5q235 0 368.5 -129t133.5 -388q0 -72 -21 -139h-545l-164 15q10 -110 74 -155.5t189 -45.5q95 0 160.5 8t162.5 33l60 -187q-163 -82 -406 -82q-271 0 -411 142.5t-140 390.5zM360 600h439q-8 118 -53.5 170.5t-155.5 52.5 q-115 0 -166.5 -48t-63.5 -175z" />
<glyph unicode="f" horiz-adv-x="841" d="M27 797l8 184l158 31v28q0 189 115.5 293.5t307.5 104.5q99 0 173 -23t153 -80l-125 -170q-83 41 -166 41q-92 0 -122.5 -31t-30.5 -116v-37h305l16 -205l-321 -24v-793h-305v788z" />
<glyph unicode="g" horiz-adv-x="1193" d="M49 510q0 121 27 216t85 167.5t156.5 111.5t233.5 39h8l248 -92l72 78l213 -39v-917q0 -268 -141.5 -396.5t-391.5 -128.5q-123 0 -213.5 21.5t-214.5 81.5l68 194q124 -42 184.5 -52.5t173.5 -10.5q119 0 174 47.5t55 167.5v16q-125 -41 -219 -41q-254 0 -386 139.5 t-132 397.5zM354 508q0 -121 27 -188.5t75 -92t130 -24.5q102 0 200 33v532q-83 41 -198 41q-60 0 -102 -13.5t-68 -36.5t-40 -62.5t-19 -82.5t-5 -106z" />
<glyph unicode="h" d="M102 0v1362h306v-406l210 91h13q250 0 362.5 -111t112.5 -352v-584h-307v596q0 120 -46 167.5t-151 47.5q-61 0 -103.5 -15.5t-90.5 -50.5v-745h-306z" />
<glyph unicode="i" horiz-adv-x="509" d="M76 1307q0 75 46 118t134 43q86 0 132 -43t46 -118q0 -73 -46 -115.5t-132 -42.5q-88 0 -134 42t-46 116zM102 0v1022h306v-1022h-306z" />
<glyph unicode="j" horiz-adv-x="509" d="M-252 -358l62 198q40 -12 86 -12q118 0 162 44.5t44 158.5v991h306v-956q0 -214 -118.5 -346t-322.5 -132q-132 0 -219 54zM76 1307q0 75 46 118t134 43q86 0 132 -43t46 -118q0 -73 -46 -115.5t-132 -42.5q-88 0 -134 42t-46 116z" />
<glyph unicode="k" horiz-adv-x="1171" d="M102 0v1362h306v-692h141l229 352h350l-331 -461l352 -561h-346l-240 422h-155v-422h-306z" />
<glyph unicode="l" horiz-adv-x="509" d="M102 0v1362h306v-1362h-306z" />
<glyph unicode="m" horiz-adv-x="1869" d="M102 0v991l211 39l76 -74l258 91h10q174 0 324 -109l305 109h12q253 0 361 -116.5t108 -359.5v-571h-303v616q0 107 -43.5 153t-142.5 46q-65 0 -107.5 -18t-80.5 -62q10 -69 10 -164v-571h-305v616q0 110 -48.5 154.5t-154.5 44.5q-119 0 -184 -70v-745h-306z" />
<glyph unicode="n" d="M102 0v983l211 47l76 -74l229 91h11q250 0 363.5 -111.5t113.5 -351.5v-584h-307v596q0 121 -44.5 168t-152.5 47q-122 0 -194 -66v-745h-306z" />
<glyph unicode="o" horiz-adv-x="1179" d="M51 510q0 238 146 387q147 150 393 150t393 -150q145 -148 145 -387t-145 -387q-147 -150 -393 -150t-393 150q-146 149 -146 387zM356 510q0 -170 60 -242q55 -67 174 -67t174 67q59 71 59 242t-59 242q-55 67 -174 67t-174 -67q-60 -72 -60 -242z" />
<glyph unicode="p" horiz-adv-x="1206" d="M102 -342v1331l211 39l74 -74l248 90h8q135 0 233.5 -39t156.5 -111.5t85 -167.5t27 -216q0 -258 -132 -397.5t-386 -139.5q-112 0 -219 39v-354h-306zM408 233q90 -34 200 -34q80 0 129 26t77 95.5t28 187.5q0 79 -8.5 129.5t-33 92t-72 60.5t-122.5 19q-98 0 -198 -41 v-535z" />
<glyph unicode="q" horiz-adv-x="1206" d="M61 510q0 121 27 216t85 167.5t156.5 111.5t233.5 39h8l248 -90l74 76l211 -39v-1333h-305v354q-107 -39 -219 -39q-254 0 -386.5 139.5t-132.5 397.5zM365 508q0 -120 28 -189t77.5 -94.5t129.5 -25.5q109 0 199 34v535q-90 41 -197 41q-75 0 -122.5 -19t-72.5 -60.5 t-33.5 -92t-8.5 -129.5z" />
<glyph unicode="r" horiz-adv-x="1073" d="M102 0v989l211 41l76 -78l232 95h34q152 0 250 -57.5t152 -180.5l-183 -129q-70 78 -132 107.5t-138 29.5q-130 0 -196 -74v-743h-306z" />
<glyph unicode="s" horiz-adv-x="1085" d="M55 72l70 202q186 -69 364 -69q128 0 180 21.5t52 74.5q0 46 -27.5 64.5t-99.5 27.5l-201 27q-160 22 -246 97.5t-86 203.5q0 155 125.5 240.5t364.5 85.5q203 0 418 -76l-68 -201q-179 51 -340 51q-54 0 -85 -2t-62.5 -9t-45.5 -23t-14 -42q0 -62 68 -73l219 -31 q189 -26 285 -96.5t96 -212.5q0 -84 -27 -147t-73 -102t-114.5 -63.5t-142.5 -33.5t-167 -9q-255 0 -443 95z" />
<glyph unicode="t" horiz-adv-x="886" d="M18 819l9 172l159 29l88 268l213 -22v-244h344l17 -197l-361 -28v-443q0 -77 37.5 -108t118.5 -31q77 0 182 33l72 -172q-56 -45 -141.5 -70.5t-175.5 -25.5q-198 0 -298 91.5t-100 290.5v426z" />
<glyph unicode="u" d="M102 430v592h306v-596q0 -121 46 -169t150 -48q119 0 195 67v746h307v-993l-213 -39l-76 76l-227 -91h-8q-252 0 -366 108t-114 347z" />
<glyph unicode="v" horiz-adv-x="1169" d="M20 1022h324l240 -780h10l235 780h320l-379 -1022h-373z" />
<glyph unicode="w" horiz-adv-x="1693" d="M20 1022h322l170 -737h8l178 737h320l184 -737h8l166 737h297l-299 -1022h-354l-168 639h-8l-160 -639h-362z" />
<glyph unicode="x" horiz-adv-x="1163" d="M20 0l347 528l-322 494h354l185 -348h10l194 348h336l-325 -498l340 -524h-346l-211 369h-11l-209 -369h-342z" />
<glyph unicode="y" horiz-adv-x="1169" d="M20 1022h328l252 -774h12l226 774h311l-412 -1135q-51 -140 -142 -209t-237 -69q-86 0 -163 31l24 204q28 -4 57 -4q82 0 121 19t47 78l5 16z" />
<glyph unicode="z" horiz-adv-x="1052" d="M61 0v162l539 631l-2 6l-184 -8h-330v231h907v-162l-545 -633l3 -6l210 17h340v-238h-938z" />
<glyph unicode="{" horiz-adv-x="569" d="M41 436v217h70q31 0 47 21.5t16 56.5v313q0 136 61.5 213.5t192.5 77.5h141v-213h-90q-41 0 -41 -47v-307q0 -63 -13.5 -106t-35.5 -67.5t-59 -45.5v-8q55 -33 81.5 -82t26.5 -140v-307q0 -45 41 -45h90v-213h-141q-131 0 -192.5 76.5t-61.5 212.5v315q0 35 -16 56.5 t-47 21.5h-70z" />
<glyph unicode="|" horiz-adv-x="460" d="M102 -143v1540h256v-1540h-256z" />
<glyph unicode="}" horiz-adv-x="569" d="M0 -33h90q41 0 41 45v307q0 90 27 139t82 83v8q-55 32 -82 80.5t-27 138.5v307q0 47 -41 47h-90v213h141q131 0 192.5 -77.5t61.5 -213.5v-313q0 -35 16.5 -56.5t47.5 -21.5h69v-217h-69q-31 0 -47.5 -21.5t-16.5 -56.5v-315q0 -136 -61.5 -212.5t-192.5 -76.5h-141v213z " />
<glyph unicode="~" horiz-adv-x="927" d="M51 608q100 137 256 137q90 0 185 -55q65 -35 122 -35q56 0 87 8.5t75 38.5l101 -137q-89 -121 -259 -121q-83 0 -174 41q-89 47 -145 47q-50 0 -82.5 -14.5t-62.5 -44.5z" />
<glyph unicode="&#xa1;" horiz-adv-x="446" d="M43 877q0 78 43 118.5t123 40.5q82 0 124 -40.5t42 -118.5q0 -75 -43 -117.5t-123 -42.5q-79 0 -122.5 43t-43.5 117zM70 -385l14 618l16 398h217l17 -398l16 -618h-280z" />
<glyph unicode="&#xa2;" horiz-adv-x="1019" d="M51 510q0 218 108.5 357.5t323.5 170.5v144h236v-140q100 -13 233 -53l-53 -196q-132 26 -276 26q-150 0 -209.5 -72t-59.5 -233q0 -157 63 -230t206 -73q121 0 272 29l59 -197q-93 -44 -235 -61v-136h-236v140q-217 30 -324.5 167.5t-107.5 356.5z" />
<glyph unicode="&#xa3;" horiz-adv-x="1103" d="M41 133l45 41q50 46 65 84t15 90v199h-103v213h103v55q0 215 107 333t317 118q48 0 94 -9l-20 -208q-121 0 -161 -38.5t-40 -142.5v-108h239v-213h-239v-141l-29 -127q16 -1 34.5 -5.5t31 -9t36 -13t33.5 -11.5q105 -37 176 -37q56 0 92.5 19t84.5 71l149 -139 q-71 -106 -147.5 -145.5t-202.5 -39.5q-85 0 -195 27q-126 29 -198 29q-92 0 -172 -56z" />
<glyph unicode="&#xa4;" horiz-adv-x="944" d="M82 811l141 123l84 -84q60 35 156 35q97 0 160 -35l88 82l143 -139l-80 -80q43 -70 43 -170q0 -93 -43 -160l78 -82l-141 -141l-84 80q-68 -35 -162 -35q-95 0 -160 33l-88 -80l-133 143l74 76q-43 76 -43 166q0 102 43 172zM317 543q0 -64 43 -105t103 -41t102.5 41 t42.5 105q0 74 -40.5 110.5t-104.5 36.5q-62 0 -104 -40t-42 -107z" />
<glyph unicode="&#xa5;" horiz-adv-x="1183" d="M20 1243h322l248 -653h10l256 653h305l-315 -663h72v-172h-652v172h74zM266 168v172h652v-172h-179v-168h-295v168h-178z" />
<glyph unicode="&#xa6;" horiz-adv-x="460" d="M102 -143v712h256v-712h-256zM102 684v713h256v-713h-256z" />
<glyph unicode="&#xa7;" horiz-adv-x="1021" d="M74 594q0 184 139 258q-82 82 -82 205q0 98 54 168.5t141 103.5t196 33q186 0 350 -86l-73 -176q-68 26 -128.5 36.5t-148.5 10.5q-83 0 -114 -21t-31 -59q0 -50 29 -69t120 -37l140 -29q297 -62 297 -320q0 -182 -144 -256q90 -90 90 -211q0 -138 -116 -227.5 t-322 -89.5q-86 0 -181.5 21t-168.5 61l61 178q137 -45 273 -45q109 0 152.5 21.5t43.5 76.5t-26 73t-119 38l-139 29q-59 12 -109.5 35.5t-93 60.5t-66.5 92.5t-24 124.5zM338 647q0 -75 32.5 -113t121.5 -55l139 -26q67 36 67 112q0 77 -29.5 113t-127.5 55l-138 27 q-65 -35 -65 -113z" />
<glyph unicode="&#xa8;" horiz-adv-x="847" d="M61 1257q0 68 37.5 105t108.5 37q74 0 111.5 -37t37.5 -105q0 -67 -37.5 -103t-111.5 -36q-71 0 -108.5 36t-37.5 103zM492 1257q0 68 37 105t108 37q145 0 145 -142q0 -67 -36.5 -103t-108.5 -36q-71 0 -108 36t-37 103z" />
<glyph unicode="&#xa9;" horiz-adv-x="1292" d="M61 524q0 256 158 407.5t428 151.5t425 -151t155 -408t-155 -408t-425 -151q-274 0 -430 151t-156 408zM268 524q0 -188 86.5 -285.5t292.5 -97.5q205 0 293 98t88 285q0 185 -88.5 283t-292.5 98q-205 0 -292 -97.5t-87 -283.5zM348 524q0 141 80.5 217t237.5 76 q115 0 204 -45l-36 -127q-72 19 -142 19q-32 0 -53.5 -3.5t-46.5 -16t-38 -42t-13 -76.5q0 -38 9.5 -65t23.5 -41t36 -22t39.5 -9.5t42.5 -1.5q59 0 142 19l36 -132q-90 -43 -204 -43q-157 0 -237.5 76t-80.5 217z" />
<glyph unicode="&#xaa;" horiz-adv-x="659" d="M51 897q0 97 61 151.5t179 61.5l106 6v12q0 64 -108 64q-50 0 -77 -4t-71 -17l-41 121q62 25 114 35t124 10q108 0 178 -60t70 -167v-266q0 -47 22 -101l-114 -49l-62 56l-113 -62h-18q-120 0 -185 57t-65 152zM240 901q0 -67 84 -67q43 0 73 32v123l-84 -12 q-73 -12 -73 -76z" />
<glyph unicode="&#xab;" horiz-adv-x="802" d="M18 504v33l310 292l118 -116l-176 -193l176 -192l-118 -117zM344 504v33l289 311l127 -109l-162 -219l162 -219l-127 -108z" />
<glyph unicode="&#xac;" horiz-adv-x="821" d="M61 567v203h705v-432h-180l-33 229h-492z" />
<glyph unicode="&#xad;" horiz-adv-x="696" d="M61 438v215h574v-215h-574z" />
<glyph unicode="&#xae;" horiz-adv-x="878" d="M51 965q0 159 113 268.5t276 109.5t275 -109t112 -269t-112 -270.5t-275 -110.5t-276 110.5t-113 270.5zM178 965q0 -124 65.5 -193.5t196.5 -69.5t195.5 69.5t64.5 193.5t-64.5 193t-195.5 69t-196.5 -69t-65.5 -193zM299 766v397h147q68 0 109 -35t41 -104 q0 -77 -61 -115l63 -143h-115l-39 121h-38v-121h-107zM406 983h36q41 0 41 41q0 26 -11.5 34.5t-35.5 8.5h-30v-84z" />
<glyph unicode="&#xaf;" horiz-adv-x="696" d="M0 1348v204h696v-204h-696z" />
<glyph unicode="&#xb0;" horiz-adv-x="720" d="M41 1016q0 137 87.5 226t231.5 89q146 0 233 -86t87 -229q0 -139 -88 -228.5t-232 -89.5t-231.5 89.5t-87.5 228.5zM225 1016q0 -82 33 -118t102 -36t102.5 36t33.5 118q0 81 -33.5 116t-102.5 35t-102 -35t-33 -116z" />
<glyph unicode="&#xb1;" horiz-adv-x="827" d="M61 715v221h234v240h237v-240h234v-221h-234v-234h-237v234h-234zM72 201v213h688v-213h-688z" />
<glyph unicode="&#xb2;" horiz-adv-x="542" d="M18 1221q102 116 246 116q115 0 176.5 -59.5t61.5 -149.5q0 -112 -103 -194l-118 -88h213v-148h-449v131l236 207q30 27 41.5 45t11.5 45q0 62 -82 62q-41 0 -69 -13.5t-68 -52.5z" />
<glyph unicode="&#xb3;" horiz-adv-x="593" d="M41 760l70 119q71 -48 157 -48q56 0 77.5 16t21.5 54q0 55 -62 55h-135v140h135q22 0 34.5 14t12.5 37q0 49 -94 49q-68 0 -129 -39l-68 109q100 71 230 71q101 0 162 -45t61 -123q0 -88 -65 -125q49 -26 71.5 -58t22.5 -85q0 -105 -71.5 -161t-188.5 -56 q-75 0 -128.5 16.5t-113.5 59.5z" />
<glyph unicode="&#xb4;" horiz-adv-x="559" d="M115 1184l133 325l241 -129l-202 -262z" />
<glyph unicode="&#xb5;" d="M102 -381v1403h306v-598q0 -121 45 -168t153 -47q65 0 110 14.5t83 52.5v746h307v-991l-213 -41l-76 76l-227 -91h-15q-93 0 -198 41l-6 -6l43 -364l-31 -27h-281z" />
<glyph unicode="&#xb6;" horiz-adv-x="978" d="M51 705q0 136 89 226.5t225 90.5h141v-961q0 -99 -27 -184l10 -6q113 81 113 281v870h291l10 -82l-133 -49v-647q0 -180 -44 -277t-148 -174l-316 -231l-67 88l36 35q60 56 83.5 110.5t23.5 149.5v442q-122 6 -204.5 96.5t-82.5 221.5z" />
<glyph unicode="&#xb7;" horiz-adv-x="485" d="M74 526q0 74 45 118t123 44q81 0 125.5 -43.5t44.5 -118.5q0 -78 -44 -119.5t-126 -41.5q-79 0 -123.5 42t-44.5 119z" />
<glyph unicode="&#xb8;" horiz-adv-x="417" d="M45 -279q87 14 129 48q35 28 35 61q0 27 -33 27h-70l-14 14l10 149l138 41l-11 -104q67 0 105.5 -31.5t38.5 -95.5q0 -74 -62 -123q-89 -71 -241 -84z" />
<glyph unicode="&#xb9;" horiz-adv-x="382" d="M31 1204l123 62l69 61l99 -8v-621h-166v412l-88 -12z" />
<glyph unicode="&#xba;" horiz-adv-x="716" d="M51 1012q0 147 79.5 236t227.5 89q149 0 228.5 -89t79.5 -236t-79.5 -235.5t-228.5 -88.5q-148 0 -227.5 88.5t-79.5 235.5zM238 1012q0 -95 29.5 -136.5t90.5 -41.5q60 0 89.5 41t29.5 137q0 95 -29.5 137.5t-89.5 42.5t-90 -42.5t-30 -137.5z" />
<glyph unicode="&#xbb;" horiz-adv-x="802" d="M43 301l162 219l-162 219l127 109l289 -311v-33l-289 -311zM356 328l176 192l-176 193l119 116l309 -292v-33l-309 -293z" />
<glyph unicode="&#xbc;" horiz-adv-x="1105" d="M-14 1169l135 64l72 67l106 -10v-659h-178v434l-94 -12zM51 12l637 1196l152 -73l-637 -1194zM510 221l317 449l181 -15v-417h73v-136l-73 -8v-94h-172v84h-289zM713 238h123v88l8 139z" />
<glyph unicode="&#xbd;" horiz-adv-x="1181" d="M-14 1169l135 64l72 67l106 -10v-659h-178v434l-94 -12zM47 12l637 1196l152 -73l-637 -1194zM612 561q113 127 265 127q123 0 191.5 -62.5t68.5 -164.5q0 -127 -113 -209l-123 -90h232v-162h-492v147l252 211q32 27 44.5 49.5t12.5 53.5q0 69 -88 69q-44 0 -75 -14 t-74 -53z" />
<glyph unicode="&#xbe;" horiz-adv-x="1302" d="M6 692l78 131q73 -53 170 -53q59 0 81.5 17t22.5 59q0 53 -63 53h-152v154h152q23 0 35 16t12 43q0 26 -23 37.5t-75 11.5q-73 0 -144 -39l-71 117q107 78 247 78q113 0 180.5 -48t67.5 -134q0 -97 -71 -140q49 -27 74.5 -61.5t25.5 -87.5q0 -116 -77.5 -177t-205.5 -61 q-82 0 -140.5 19t-123.5 65zM252 12l637 1196l151 -73l-637 -1194zM711 221l317 449l180 -15v-417h74v-136l-74 -8v-94h-172v84h-288zM913 238h123v88l8 139z" />
<glyph unicode="&#xbf;" horiz-adv-x="1073" d="M51 61q0 75 23 136.5t57.5 102t87 73.5t97.5 51.5t104 36.5q88 27 115.5 65t27.5 117h273q0 -93 -8.5 -148.5t-37.5 -104.5t-82 -82t-143 -66l-22 -9q-101 -35 -142 -71t-41 -117q0 -92 57.5 -131t211.5 -39q191 0 381 113l116 -201q-208 -154 -493 -154 q-122 0 -222 21.5t-183.5 69t-130 133t-46.5 204.5zM526 877q0 159 168 159q80 0 122 -39.5t42 -117.5q0 -75 -43 -118.5t-121 -43.5q-82 0 -125 42.5t-43 117.5z" />
<glyph unicode="&#xc0;" horiz-adv-x="1337" d="M31 0l442 1319h412l422 -1319h-324l-61 207h-514l-60 -207h-317zM377 1677l246 129l131 -344l-176 -63zM489 449h355l-150 593h-43z" />
<glyph unicode="&#xc1;" horiz-adv-x="1337" d="M31 0l442 1319h412l422 -1319h-324l-61 207h-514l-60 -207h-317zM489 449h355l-150 593h-43zM575 1462l132 344l245 -129l-200 -278z" />
<glyph unicode="&#xc2;" horiz-adv-x="1337" d="M31 0l442 1319h412l422 -1319h-324l-61 207h-514l-60 -207h-317zM358 1528l295 231h33l293 -231l-90 -131l-219 116l-221 -116zM489 449h355l-150 593h-43z" />
<glyph unicode="&#xc3;" horiz-adv-x="1337" d="M31 0l442 1319h412l422 -1319h-324l-61 207h-514l-60 -207h-317zM287 1569q91 127 239 127q73 0 166 -49q59 -27 123 -27q78 0 148 37l92 -127q-86 -113 -242 -113q-70 0 -158 39q-67 31 -133 31q-78 0 -143 -43zM489 449h355l-150 593h-43z" />
<glyph unicode="&#xc4;" horiz-adv-x="1337" d="M31 0l442 1319h412l422 -1319h-324l-61 207h-514l-60 -207h-317zM299 1561q0 74 40 112.5t116 38.5q159 0 159 -151q0 -71 -40.5 -111.5t-118.5 -40.5q-75 0 -115.5 41t-40.5 111zM489 449h355l-150 593h-43zM725 1561q0 74 39.5 112.5t114.5 38.5q159 0 159 -151 q0 -71 -40 -111.5t-119 -40.5q-74 0 -114 41t-40 111z" />
<glyph unicode="&#xc5;" horiz-adv-x="1337" d="M31 0l442 1319h412l422 -1319h-324l-61 207h-514l-60 -207h-317zM438 1628q0 100 71 169t175 69q100 0 173 -69t73 -169q0 -106 -71 -175t-175 -69q-106 0 -176 69t-70 175zM489 449h355l-150 593h-43zM592 1628q0 -39 27 -64.5t65 -25.5q37 0 62.5 24t25.5 66 q0 39 -25.5 62.5t-62.5 23.5q-39 0 -65.5 -25.5t-26.5 -60.5z" />
<glyph unicode="&#xc6;" horiz-adv-x="1857" d="M10 0l670 1319h1089v-246h-583v-266h508v-242h-508v-319h610v-246h-924v244h-419l-113 -244h-330zM555 483h317v590h-43z" />
<glyph unicode="&#xc7;" horiz-adv-x="1169" d="M61 659q0 156 31.5 275.5t86.5 197t135.5 127t172 69.5t203.5 20q230 0 428 -109l-92 -215q-96 42 -166.5 61t-159.5 19q-100 0 -161.5 -21t-99 -75.5t-51 -135.5t-13.5 -213q0 -127 14 -206.5t50.5 -134t99 -77t161.5 -22.5q89 0 159.5 19t164.5 61l94 -221 q-192 -106 -411 -109l-9 -45q84 0 128 -38.5t44 -106.5q0 -76 -55 -135.5t-141.5 -89.5t-186.5 -29l-22 135q98 9 149.5 32t51.5 79q0 32 -60 32h-47l-29 23l5 156q-109 18 -192.5 62t-148.5 122.5t-99 202.5t-34 290z" />
<glyph unicode="&#xc8;" horiz-adv-x="1120" d="M102 0v1319h932v-246h-618v-266h534v-242h-534v-319h643v-246h-957zM381 1677l246 129l131 -344l-176 -63z" />
<glyph unicode="&#xc9;" horiz-adv-x="1120" d="M102 0v1319h932v-246h-618v-266h534v-242h-534v-319h643v-246h-957zM446 1462l132 344l245 -129l-200 -278z" />
<glyph unicode="&#xca;" horiz-adv-x="1120" d="M102 0v1319h932v-246h-618v-266h534v-242h-534v-319h643v-246h-957zM287 1528l295 231h32l293 -231l-90 -131l-219 116l-221 -116z" />
<glyph unicode="&#xcb;" horiz-adv-x="1120" d="M102 0v1319h932v-246h-618v-266h534v-242h-534v-319h643v-246h-957zM213 1561q0 74 40 112.5t116 38.5q159 0 159 -151q0 -71 -40.5 -111.5t-118.5 -40.5q-75 0 -115.5 41t-40.5 111zM639 1561q0 74 39.5 112.5t114.5 38.5q159 0 159 -151q0 -71 -40 -111.5t-119 -40.5 q-74 0 -114 41t-40 111z" />
<glyph unicode="&#xcc;" horiz-adv-x="516" d="M12 1677l246 129l131 -344l-176 -63zM102 0v1319h312v-1319h-312z" />
<glyph unicode="&#xcd;" horiz-adv-x="516" d="M102 0v1319h312v-1319h-312zM143 1462l131 344l246 -129l-201 -278z" />
<glyph unicode="&#xce;" horiz-adv-x="516" d="M-51 1528l295 231h32l293 -231l-90 -131l-219 116l-221 -116zM102 0v1319h312v-1319h-312z" />
<glyph unicode="&#xcf;" horiz-adv-x="516" d="M-111 1561q0 74 40 112.5t116 38.5q160 0 160 -151q0 -71 -41 -111.5t-119 -40.5q-75 0 -115.5 41t-40.5 111zM102 0v1319h312v-1319h-312zM315 1561q0 74 39.5 112.5t114.5 38.5q160 0 160 -151q0 -71 -40 -111.5t-120 -40.5q-74 0 -114 41t-40 111z" />
<glyph unicode="&#xd0;" horiz-adv-x="1263" d="M0 553v227h115v539h467q318 0 469 -155.5t151 -504.5q0 -239 -70 -385.5t-204 -210t-346 -63.5h-467v553h-115zM428 244h170q169 0 230 90.5t61 324.5q0 239 -63 327.5t-238 88.5h-160v-295h217v-227h-217v-309z" />
<glyph unicode="&#xd1;" horiz-adv-x="1306" d="M102 0v1319h312l331 -574l173 -325l8 4l-11 405v490h289v-1319h-338l-340 561l-141 270l-10 -4l12 -413v-414h-285zM270 1569q91 127 240 127q73 0 166 -49q58 -27 123 -27q77 0 147 37l92 -127q-86 -113 -241 -113q-70 0 -158 39q-67 31 -133 31q-79 0 -144 -43z" />
<glyph unicode="&#xd2;" horiz-adv-x="1347" d="M61 659q0 363 185 539q156 150 418 150q261 0 417 -150q185 -176 185 -539q0 -362 -185 -538q-156 -150 -417 -150q-262 0 -418 150q-185 176 -185 538zM373 659q0 -249 84 -356q72 -92 207 -92q134 0 206 92q84 107 84 356q0 250 -84 357q-72 92 -206 92 q-135 0 -207 -92q-84 -107 -84 -357zM455 1698l245 129l131 -344l-176 -64z" />
<glyph unicode="&#xd3;" horiz-adv-x="1347" d="M61 659q0 363 185 539q156 150 418 150q261 0 417 -150q185 -176 185 -539q0 -362 -185 -538q-156 -150 -417 -150q-262 0 -418 150q-185 176 -185 538zM373 659q0 -249 84 -356q72 -92 207 -92q134 0 206 92q84 107 84 356q0 250 -84 357q-72 92 -206 92 q-135 0 -207 -92q-84 -107 -84 -357zM565 1483l131 344l246 -129l-201 -279z" />
<glyph unicode="&#xd4;" horiz-adv-x="1347" d="M61 659q0 363 185 539q156 150 418 150q261 0 417 -150q185 -176 185 -539q0 -362 -185 -538q-156 -150 -417 -150q-262 0 -418 150q-185 176 -185 538zM362 1528l295 231h33l293 -231l-90 -131l-219 116l-221 -116zM373 659q0 -249 84 -356q72 -92 207 -92q134 0 206 92 q84 107 84 356q0 250 -84 357q-72 92 -206 92q-135 0 -207 -92q-84 -107 -84 -357z" />
<glyph unicode="&#xd5;" horiz-adv-x="1347" d="M61 659q0 363 185 539q156 150 418 150q261 0 417 -150q185 -176 185 -539q0 -362 -185 -538q-156 -150 -417 -150q-262 0 -418 150q-185 176 -185 538zM291 1569q91 127 239 127q73 0 166 -49q59 -27 123 -27q78 0 148 37l92 -127q-86 -113 -242 -113q-70 0 -158 39 q-67 31 -133 31q-78 0 -143 -43zM373 659q0 -249 84 -356q72 -92 207 -92q134 0 206 92q84 107 84 356q0 250 -84 357q-72 92 -206 92q-135 0 -207 -92q-84 -107 -84 -357z" />
<glyph unicode="&#xd6;" horiz-adv-x="1347" d="M61 659q0 363 185 539q156 150 418 150q261 0 417 -150q185 -176 185 -539q0 -362 -185 -538q-156 -150 -417 -150q-262 0 -418 150q-185 176 -185 538zM303 1561q0 74 40 112.5t116 38.5q159 0 159 -151q0 -71 -40.5 -111.5t-118.5 -40.5q-75 0 -115.5 41t-40.5 111z M373 659q0 -249 84 -356q72 -92 207 -92q134 0 206 92q84 107 84 356q0 250 -84 357q-72 92 -206 92q-135 0 -207 -92q-84 -107 -84 -357zM729 1561q0 74 39.5 112.5t114.5 38.5q159 0 159 -151q0 -71 -40 -111.5t-119 -40.5q-74 0 -114 41t-40 111z" />
<glyph unicode="&#xd7;" horiz-adv-x="759" d="M49 842l168 168l164 -164l162 162l164 -164l-162 -162l164 -164l-168 -168l-164 164l-162 -162l-162 162l162 164z" />
<glyph unicode="&#xd8;" horiz-adv-x="1347" d="M61 659q0 366 183 543q146 146 430 146q129 0 209 -21l49 90l219 -110l-53 -99q99 -93 147 -247q41 -133 41 -302q0 -371 -180 -542q-151 -148 -432 -148q-107 0 -234 29l-43 -82l-217 115l51 96q-170 178 -170 532zM373 659q0 -155 12 -249l375 694q-58 4 -86 4 q-132 0 -207 -66q-94 -87 -94 -383zM563 221q55 -10 111 -10q136 0 207 68q94 84 94 380q0 178 -25 281z" />
<glyph unicode="&#xd9;" horiz-adv-x="1284" d="M102 559v760h312v-838q0 -133 55 -198.5t176 -65.5q120 0 173.5 65t53.5 199v838h310v-762q0 -161 -36.5 -275.5t-109 -181.5t-170 -97t-229.5 -30q-128 0 -223.5 30.5t-167 98.5t-108 182t-36.5 275zM379 1677l246 129l131 -344l-176 -63z" />
<glyph unicode="&#xda;" horiz-adv-x="1284" d="M102 559v760h312v-838q0 -133 55 -198.5t176 -65.5q120 0 173.5 65t53.5 199v838h310v-762q0 -161 -36.5 -275.5t-109 -181.5t-170 -97t-229.5 -30q-128 0 -223.5 30.5t-167 98.5t-108 182t-36.5 275zM520 1462l131 344l246 -129l-201 -278z" />
<glyph unicode="&#xdb;" horiz-adv-x="1284" d="M102 559v760h312v-838q0 -133 55 -198.5t176 -65.5q120 0 173.5 65t53.5 199v838h310v-762q0 -161 -36.5 -275.5t-109 -181.5t-170 -97t-229.5 -30q-128 0 -223.5 30.5t-167 98.5t-108 182t-36.5 275zM330 1528l295 231h32l293 -231l-90 -131l-219 116l-221 -116z" />
<glyph unicode="&#xdc;" horiz-adv-x="1284" d="M102 559v760h312v-838q0 -133 55 -198.5t176 -65.5q120 0 173.5 65t53.5 199v838h310v-762q0 -161 -36.5 -275.5t-109 -181.5t-170 -97t-229.5 -30q-128 0 -223.5 30.5t-167 98.5t-108 182t-36.5 275zM270 1561q0 74 40 112.5t116 38.5q160 0 160 -151q0 -71 -41 -111.5 t-119 -40.5q-75 0 -115.5 41t-40.5 111zM696 1561q0 74 39.5 112.5t114.5 38.5q160 0 160 -151q0 -71 -40 -111.5t-120 -40.5q-74 0 -114 41t-40 111z" />
<glyph unicode="&#xdd;" horiz-adv-x="1251" d="M25 1319h335l160 -379l109 -272h10l270 651h322l-447 -950v-369h-313v356zM532 1462l132 344l245 -129l-200 -278z" />
<glyph unicode="&#xde;" horiz-adv-x="1146" d="M102 0v1325h316v-156h178q81 0 152.5 -15t137 -51.5t112 -92t74.5 -142t28 -196.5q0 -108 -28 -194.5t-76 -143t-114 -94.5t-139 -54t-155 -16h-170v-170h-316zM418 414h174q101 0 150 63t49 195q0 254 -199 254h-174v-512z" />
<glyph unicode="&#xdf;" horiz-adv-x="1249" d="M102 0v985q0 199 114.5 320.5t330.5 121.5q202 0 312 -82t110 -235q0 -89 -42.5 -145t-97.5 -82q-43 -20 -61 -38.5t-18 -41.5q0 -36 86 -68l112 -41q112 -40 181 -128.5t69 -213.5q0 -84 -26 -149.5t-69 -107.5t-103 -69t-124 -38t-137 -11q-98 0 -157 14t-133 54 l67 197q104 -33 199 -33q92 0 140 29t48 98q0 64 -32 95.5t-117 64.5l-105 41q-184 71 -184 233q0 97 80 166q14 11 39.5 30t39.5 31t30.5 29.5t24 38t7.5 45.5q0 80 -123 80q-79 0 -117 -39.5t-38 -136.5v-1014h-306z" />
<glyph unicode="&#xe0;" horiz-adv-x="1146" d="M49 332q0 161 109.5 244.5t318.5 91.5l258 10v35q0 53 -47 80q-58 32 -160 32q-164 0 -319 -49l-59 189q195 79 411 79q233 0 350 -83q129 -93 129 -295v-422q0 -52 11.5 -89t40.5 -83l-150 -88l-149 94l-265 -101h-26q-213 0 -333 98.5t-120 256.5zM291 1380l239 129 l136 -325l-172 -66zM358 344q0 -69 43 -102t136 -33q132 0 198 47v242l-258 -19q-119 -7 -119 -135z" />
<glyph unicode="&#xe1;" horiz-adv-x="1146" d="M49 332q0 161 109.5 244.5t318.5 91.5l258 10v35q0 53 -47 80q-58 32 -160 32q-164 0 -319 -49l-59 189q195 79 411 79q233 0 350 -83q129 -93 129 -295v-422q0 -52 11.5 -89t40.5 -83l-150 -88l-149 94l-265 -101h-26q-213 0 -333 98.5t-120 256.5zM358 344 q0 -69 43 -102t136 -33q132 0 198 47v242l-258 -19q-119 -7 -119 -135zM475 1184l133 325l241 -129l-202 -262z" />
<glyph unicode="&#xe2;" horiz-adv-x="1146" d="M49 332q0 161 109.5 244.5t318.5 91.5l258 10v35q0 53 -47 80q-58 32 -160 32q-164 0 -319 -49l-59 189q195 79 411 79q233 0 350 -83q129 -93 129 -295v-422q0 -52 11.5 -89t40.5 -83l-150 -88l-149 94l-265 -101h-26q-213 0 -333 98.5t-120 256.5zM287 1217l262 245h33 l264 -245l-94 -117l-187 106l-186 -106zM358 344q0 -69 43 -102t136 -33q132 0 198 47v242l-258 -19q-119 -7 -119 -135z" />
<glyph unicode="&#xe3;" horiz-adv-x="1146" d="M49 332q0 161 109.5 244.5t318.5 91.5l258 10v35q0 53 -47 80q-58 32 -160 32q-164 0 -319 -49l-59 189q195 79 411 79q233 0 350 -83q129 -93 129 -295v-422q0 -52 11.5 -89t40.5 -83l-150 -88l-149 94l-265 -101h-26q-213 0 -333 98.5t-120 256.5zM215 1282 q88 117 219 117q77 0 150 -47q53 -29 108 -29q49 0 76 7.5t63 33.5l87 -117q-76 -102 -224 -102q-68 0 -143 35q-84 39 -127 39q-72 0 -125 -50zM358 344q0 -69 43 -102t136 -33q132 0 198 47v242l-258 -19q-119 -7 -119 -135z" />
<glyph unicode="&#xe4;" horiz-adv-x="1146" d="M49 332q0 161 109.5 244.5t318.5 91.5l258 10v35q0 53 -47 80q-58 32 -160 32q-164 0 -319 -49l-59 189q195 79 411 79q233 0 350 -83q129 -93 129 -295v-422q0 -52 11.5 -89t40.5 -83l-150 -88l-149 94l-265 -101h-26q-213 0 -333 98.5t-120 256.5zM223 1257 q0 68 37.5 105t108.5 37q74 0 111.5 -37t37.5 -105q0 -67 -37.5 -103t-111.5 -36q-71 0 -108.5 36t-37.5 103zM358 344q0 -69 43 -102t136 -33q132 0 198 47v242l-258 -19q-119 -7 -119 -135zM654 1257q0 68 37 105t108 37q145 0 145 -142q0 -67 -36.5 -103t-108.5 -36 q-71 0 -108 36t-37 103z" />
<glyph unicode="&#xe5;" horiz-adv-x="1146" d="M49 332q0 161 109.5 244.5t318.5 91.5l258 10v35q0 53 -47 80q-58 32 -160 32q-164 0 -319 -49l-59 189q195 79 411 79q233 0 350 -83q129 -93 129 -295v-422q0 -52 11.5 -89t40.5 -83l-150 -88l-149 94l-265 -101h-26q-213 0 -333 98.5t-120 256.5zM358 344 q0 -69 43 -102t136 -33q132 0 198 47v242l-258 -19q-119 -7 -119 -135zM365 1321q0 90 64 152.5t157 62.5q90 0 154.5 -62.5t64.5 -152.5q0 -96 -62.5 -157.5t-156.5 -61.5q-95 0 -158 62t-63 157zM504 1321q0 -35 24 -57.5t58 -22.5q33 0 56.5 21.5t23.5 58.5q0 34 -24 56 t-56 22q-35 0 -58.5 -22.5t-23.5 -55.5z" />
<glyph unicode="&#xe6;" horiz-adv-x="1835" d="M49 332q0 161 109.5 244.5t318.5 91.5l258 10v35q0 53 -47 80q-58 32 -164 32q-160 0 -315 -49l-59 189q108 44 200.5 63t204.5 19q93 0 189.5 -23t170.5 -72q157 95 342 95q237 0 370.5 -129t133.5 -388q0 -68 -22 -139h-543l-162 15q10 -109 71 -155t171 -46 q169 0 342 41l57 -187q-163 -82 -403 -82q-233 0 -381 113l-363 -113h-26q-213 0 -333 98.5t-120 256.5zM358 338q0 -71 41.5 -100t137.5 -29q62 0 127 14.5t104 36.5q-20 50 -26.5 93t-6.5 118v27l-258 -19q-50 -3 -84.5 -38.5t-34.5 -102.5zM1034 600h434q-6 117 -52 170 t-156 53q-114 0 -163.5 -47.5t-62.5 -175.5z" />
<glyph unicode="&#xe7;" horiz-adv-x="1019" d="M51 510q0 162 59 281t184.5 187.5t307.5 68.5q192 0 350 -58l-53 -198q-142 28 -274 28q-150 0 -209.5 -72t-59.5 -233q0 -158 63 -231.5t206 -73.5q130 0 270 31l63 -203q-156 -57 -342 -60l-4 -40q67 0 105.5 -31.5t38.5 -95.5q0 -74 -62 -123q-89 -71 -241 -84l-25 98 q89 14 129 47q35 28 35 62q0 26 -33 26h-70l-14 14l8 136q-217 30 -324.5 167.5t-107.5 356.5z" />
<glyph unicode="&#xe8;" horiz-adv-x="1167" d="M51 510q0 258 137.5 397.5t401.5 139.5q235 0 368.5 -129t133.5 -388q0 -72 -21 -139h-545l-164 15q10 -110 74 -155.5t189 -45.5q95 0 160.5 8t162.5 33l60 -187q-163 -82 -406 -82q-271 0 -411 142.5t-140 390.5zM324 1380l239 129l135 -325l-172 -66zM360 600h439 q-8 118 -53.5 170.5t-155.5 52.5q-115 0 -166.5 -48t-63.5 -175z" />
<glyph unicode="&#xe9;" horiz-adv-x="1167" d="M51 510q0 258 137.5 397.5t401.5 139.5q235 0 368.5 -129t133.5 -388q0 -72 -21 -139h-545l-164 15q10 -110 74 -155.5t189 -45.5q95 0 160.5 8t162.5 33l60 -187q-163 -82 -406 -82q-271 0 -411 142.5t-140 390.5zM360 600h439q-8 118 -53.5 170.5t-155.5 52.5 q-115 0 -166.5 -48t-63.5 -175zM512 1184l133 325l241 -129l-202 -262z" />
<glyph unicode="&#xea;" horiz-adv-x="1167" d="M51 510q0 258 137.5 397.5t401.5 139.5q235 0 368.5 -129t133.5 -388q0 -72 -21 -139h-545l-164 15q10 -110 74 -155.5t189 -45.5q95 0 160.5 8t162.5 33l60 -187q-163 -82 -406 -82q-271 0 -411 142.5t-140 390.5zM299 1217l262 245h33l264 -245l-94 -117l-186 106 l-187 -106zM360 600h439q-8 118 -53.5 170.5t-155.5 52.5q-115 0 -166.5 -48t-63.5 -175z" />
<glyph unicode="&#xeb;" horiz-adv-x="1167" d="M51 510q0 258 137.5 397.5t401.5 139.5q235 0 368.5 -129t133.5 -388q0 -72 -21 -139h-545l-164 15q10 -110 74 -155.5t189 -45.5q95 0 160.5 8t162.5 33l60 -187q-163 -82 -406 -82q-271 0 -411 142.5t-140 390.5zM221 1257q0 68 37.5 105t108.5 37q74 0 111.5 -37 t37.5 -105q0 -67 -37.5 -103t-111.5 -36q-71 0 -108.5 36t-37.5 103zM360 600h439q-8 118 -53.5 170.5t-155.5 52.5q-115 0 -166.5 -48t-63.5 -175zM652 1257q0 68 37 105t108 37q145 0 145 -142q0 -67 -36.5 -103t-108.5 -36q-71 0 -108 36t-37 103z" />
<glyph unicode="&#xec;" horiz-adv-x="509" d="M2 1380l240 129l135 -325l-172 -66zM102 0v1022h306v-1022h-306z" />
<glyph unicode="&#xed;" horiz-adv-x="509" d="M102 0v1022h306v-1022h-306zM146 1184l133 325l241 -129l-202 -262z" />
<glyph unicode="&#xee;" horiz-adv-x="509" d="M-23 1217l263 245h32l265 -245l-95 -117l-186 106l-186 -106zM102 0v1022h306v-1022h-306z" />
<glyph unicode="&#xef;" horiz-adv-x="509" d="M-105 1257q0 68 37.5 105t108.5 37q74 0 111.5 -37t37.5 -105q0 -67 -37.5 -103t-111.5 -36q-71 0 -108.5 36t-37.5 103zM102 0v1022h306v-1022h-306zM326 1257q0 68 37 105t108 37q145 0 145 -142q0 -67 -36.5 -103t-108.5 -36q-71 0 -108 36t-37 103z" />
<glyph unicode="&#xf0;" horiz-adv-x="1179" d="M51 483q0 262 136 386t380 124q67 0 111 -8l141 -82l6 4q-38 171 -180 258l-47 -125l-176 64l49 137q-101 27 -235 39l14 199q164 0 305 -23l59 154l177 -68l-56 -147q178 -87 269 -244q114 -190 114 -504q0 -187 -35 -318.5t-105.5 -207.5t-165.5 -110t-226 -34 q-255 0 -395 123.5t-140 382.5zM352 483q0 -160 52.5 -221t187.5 -61q68 0 113 22.5t68.5 68t32.5 98.5t9 128q0 147 -51 223q-79 27 -189 27q-124 0 -173.5 -62t-49.5 -223z" />
<glyph unicode="&#xf1;" d="M102 0v983l211 47l76 -74l229 91h11q250 0 363.5 -111.5t113.5 -351.5v-584h-307v596q0 121 -44.5 168t-152.5 47q-122 0 -194 -66v-745h-306zM250 1282q88 117 219 117q76 0 149 -47q53 -29 109 -29q49 0 76 7.5t63 33.5l86 -117q-76 -102 -223 -102q-68 0 -143 35 q-84 39 -127 39q-72 0 -125 -50z" />
<glyph unicode="&#xf2;" horiz-adv-x="1179" d="M51 510q0 238 146 387q147 150 393 150t393 -150q145 -148 145 -387t-145 -387q-147 -150 -393 -150t-393 150q-146 149 -146 387zM318 1380l239 129l135 -325l-172 -66zM356 510q0 -170 60 -242q55 -67 174 -67t174 67q59 71 59 242t-59 242q-55 67 -174 67t-174 -67 q-60 -72 -60 -242z" />
<glyph unicode="&#xf3;" horiz-adv-x="1179" d="M51 510q0 238 146 387q147 150 393 150t393 -150q145 -148 145 -387t-145 -387q-147 -150 -393 -150t-393 150q-146 149 -146 387zM356 510q0 -170 60 -242q55 -67 174 -67t174 67q59 71 59 242t-59 242q-55 67 -174 67t-174 -67q-60 -72 -60 -242zM527 1184l133 325 l241 -129l-202 -262z" />
<glyph unicode="&#xf4;" horiz-adv-x="1179" d="M51 510q0 238 146 387q147 150 393 150t393 -150q145 -148 145 -387t-145 -387q-147 -150 -393 -150t-393 150q-146 149 -146 387zM309 1217l262 245h33l264 -245l-94 -117l-187 106l-186 -106zM356 510q0 -170 60 -242q55 -67 174 -67t174 67q59 71 59 242t-59 242 q-55 67 -174 67t-174 -67q-60 -72 -60 -242z" />
<glyph unicode="&#xf5;" horiz-adv-x="1179" d="M51 510q0 238 146 387q147 150 393 150t393 -150q145 -148 145 -387t-145 -387q-147 -150 -393 -150t-393 150q-146 149 -146 387zM238 1282q88 117 219 117q76 0 149 -47q53 -29 109 -29q49 0 76 7.5t63 33.5l86 -117q-76 -102 -223 -102q-69 0 -144 35q-84 39 -127 39 q-71 0 -124 -50zM356 510q0 -170 60 -242q55 -67 174 -67t174 67q59 71 59 242t-59 242q-55 67 -174 67t-174 -67q-60 -72 -60 -242z" />
<glyph unicode="&#xf6;" horiz-adv-x="1179" d="M51 510q0 238 146 387q147 150 393 150t393 -150q145 -148 145 -387t-145 -387q-147 -150 -393 -150t-393 150q-146 149 -146 387zM229 1257q0 68 37.5 105t108.5 37q74 0 111.5 -37t37.5 -105q0 -67 -37.5 -103t-111.5 -36q-71 0 -108.5 36t-37.5 103zM356 510 q0 -170 60 -242q55 -67 174 -67t174 67q59 71 59 242t-59 242q-55 67 -174 67t-174 -67q-60 -72 -60 -242zM659 1257q0 68 37.5 105t108.5 37q145 0 145 -142q0 -67 -36.5 -103t-108.5 -36q-71 0 -108.5 36t-37.5 103z" />
<glyph unicode="&#xf7;" horiz-adv-x="749" d="M82 541v221h586v-221h-586zM217 319q0 71 41.5 111.5t114.5 40.5q74 0 115.5 -40.5t41.5 -111.5q0 -70 -41 -108.5t-116 -38.5q-74 0 -115 38.5t-41 108.5zM217 989q0 70 41.5 111t114.5 41q74 0 115.5 -41t41.5 -111q0 -72 -41 -110.5t-116 -38.5q-74 0 -115 38.5 t-41 110.5z" />
<glyph unicode="&#xf8;" horiz-adv-x="1179" d="M51 510q0 238 146 387q147 150 393 150q117 0 213 -35l49 71l186 -118l-51 -74q141 -147 141 -381q0 -239 -145 -387q-147 -150 -393 -150q-106 0 -207 33l-61 -90l-187 121l60 86q-69 72 -106.5 172t-37.5 215zM356 510q0 -84 11 -135l299 436q-46 8 -76 8 q-119 0 -174 -67q-60 -72 -60 -242zM520 207q30 -6 70 -6q119 0 174 67q59 71 59 242q0 67 -10 125z" />
<glyph unicode="&#xf9;" d="M102 430v592h306v-596q0 -121 46 -169t150 -48q119 0 195 67v746h307v-993l-213 -39l-76 76l-227 -91h-8q-252 0 -366 108t-114 347zM336 1380l239 129l136 -325l-172 -66z" />
<glyph unicode="&#xfa;" d="M102 430v592h306v-596q0 -121 46 -169t150 -48q119 0 195 67v746h307v-993l-213 -39l-76 76l-227 -91h-8q-252 0 -366 108t-114 347zM533 1184l133 325l241 -129l-202 -262z" />
<glyph unicode="&#xfb;" d="M102 430v592h306v-596q0 -121 46 -169t150 -48q119 0 195 67v746h307v-993l-213 -39l-76 76l-227 -91h-8q-252 0 -366 108t-114 347zM322 1217l262 245h32l265 -245l-95 -117l-186 106l-186 -106z" />
<glyph unicode="&#xfc;" d="M102 430v592h306v-596q0 -121 46 -169t150 -48q119 0 195 67v746h307v-993l-213 -39l-76 76l-227 -91h-8q-252 0 -366 108t-114 347zM241 1257q0 68 37.5 105t108.5 37q74 0 111.5 -37t37.5 -105q0 -67 -37.5 -103t-111.5 -36q-71 0 -108.5 36t-37.5 103zM672 1257 q0 68 37 105t108 37q145 0 145 -142q0 -67 -36.5 -103t-108.5 -36q-71 0 -108 36t-37 103z" />
<glyph unicode="&#xfd;" horiz-adv-x="1169" d="M20 1022h328l252 -774h12l226 774h311l-412 -1135q-51 -140 -142 -209t-237 -69q-86 0 -163 31l24 204q28 -4 57 -4q82 0 121 19t47 78l5 16zM508 1184l133 325l241 -129l-202 -262z" />
<glyph unicode="&#xfe;" horiz-adv-x="1157" d="M102 -338v1700h306v-385l210 67h9q231 0 357 -135t126 -399q0 -261 -126 -397t-378 -136q-118 0 -198 39v-354h-306zM408 246q59 -37 172 -37q125 0 175 68.5t50 232.5q0 77 -10.5 132.5t-28.5 89t-47.5 53t-61.5 26t-77 6.5q-57 0 -93 -10t-79 -33v-528z" />
<glyph unicode="&#xff;" horiz-adv-x="1169" d="M20 1022h328l252 -774h12l226 774h311l-412 -1135q-51 -140 -142 -209t-237 -69q-86 0 -163 31l24 204q28 -4 57 -4q82 0 121 19t47 78l5 16zM247 1257q0 68 37.5 105t108.5 37q74 0 111.5 -37t37.5 -105q0 -67 -37.5 -103t-111.5 -36q-71 0 -108.5 36t-37.5 103z M678 1257q0 68 37 105t108 37q145 0 145 -142q0 -67 -36.5 -103t-108.5 -36q-71 0 -108 36t-37 103z" />
<glyph unicode="&#x152;" horiz-adv-x="1974" d="M61 659q0 363 183 543q149 146 434 146q98 0 178.5 -27t128.5 -74v72h903v-246h-596v-266h512v-242h-512v-319h621v-246h-928v61q-121 -92 -307 -92q-283 0 -434 148q-183 177 -183 542zM373 659q0 -294 96 -383q74 -65 209 -65q138 0 209 65q98 91 98 373 q0 157 -23.5 251.5t-74.5 141.5q-72 66 -209 66t-209 -66q-96 -89 -96 -383z" />
<glyph unicode="&#x153;" horiz-adv-x="1918" d="M51 510q0 277 191 424q151 113 352 113q211 0 367 -115q146 115 376 115q237 0 371.5 -129t134.5 -388q0 -75 -20 -139h-549l-160 15q10 -109 71 -155t171 -46q171 0 344 41l59 -187q-163 -82 -407 -82q-239 0 -387 97q-145 -101 -371 -101q-214 0 -352 107 q-191 147 -191 430zM358 510q0 -177 70 -250q58 -61 166 -61q109 0 164 61q67 70 67 250q0 177 -67 250q-56 59 -164 59q-107 0 -166 -59q-70 -76 -70 -250zM1112 600h440q-8 117 -54.5 170t-158.5 53t-163 -48t-64 -175z" />
<glyph unicode="&#x178;" horiz-adv-x="1251" d="M25 1319h335l160 -379l109 -272h10l270 651h322l-447 -950v-369h-313v356zM264 1561q0 74 40 112.5t116 38.5q160 0 160 -151q0 -71 -41 -111.5t-119 -40.5q-75 0 -115.5 41t-40.5 111zM690 1561q0 74 39.5 112.5t114.5 38.5q160 0 160 -151q0 -71 -40 -111.5t-120 -40.5 q-74 0 -114 41t-40 111z" />
<glyph unicode="&#x2c6;" horiz-adv-x="710" d="M76 1217l262 245h33l264 -245l-94 -117l-187 106l-186 -106z" />
<glyph unicode="&#x2dc;" horiz-adv-x="786" d="M43 1282q88 117 219 117q77 0 150 -47q53 -29 108 -29q49 0 76 7.5t63 33.5l86 -117q-77 -102 -223 -102q-68 0 -143 35q-84 39 -127 39q-72 0 -125 -50z" />
<glyph unicode="&#x2000;" horiz-adv-x="933" />
<glyph unicode="&#x2001;" horiz-adv-x="1866" />
<glyph unicode="&#x2002;" horiz-adv-x="933" />
<glyph unicode="&#x2003;" horiz-adv-x="1866" />
<glyph unicode="&#x2004;" horiz-adv-x="622" />
<glyph unicode="&#x2005;" horiz-adv-x="466" />
<glyph unicode="&#x2006;" horiz-adv-x="311" />
<glyph unicode="&#x2007;" horiz-adv-x="311" />
<glyph unicode="&#x2008;" horiz-adv-x="233" />
<glyph unicode="&#x2009;" horiz-adv-x="373" />
<glyph unicode="&#x200a;" horiz-adv-x="103" />
<glyph unicode="&#x2010;" horiz-adv-x="696" d="M61 438v215h574v-215h-574z" />
<glyph unicode="&#x2011;" horiz-adv-x="696" d="M61 438v215h574v-215h-574z" />
<glyph unicode="&#x2012;" horiz-adv-x="696" d="M61 438v215h574v-215h-574z" />
<glyph unicode="&#x2013;" horiz-adv-x="909" d="M61 438v213h787v-213h-787z" />
<glyph unicode="&#x2014;" horiz-adv-x="1062" d="M61 438v213h940v-213h-940z" />
<glyph unicode="&#x2018;" horiz-adv-x="481" d="M86 1059q0 78 26 154.5t85 179.5l133 -31l-29 -158q47 -10 70.5 -49t23.5 -94q0 -69 -41 -110.5t-116 -41.5q-152 0 -152 150z" />
<glyph unicode="&#x2019;" horiz-adv-x="481" d="M86 1219q0 69 41.5 110t116.5 41q151 0 151 -149q0 -79 -25.5 -155.5t-84.5 -178.5l-133 31l28 157q-47 10 -70.5 49.5t-23.5 94.5z" />
<glyph unicode="&#x201a;" horiz-adv-x="481" d="M86 135q0 69 41.5 110.5t116.5 41.5q151 0 151 -150q0 -79 -25.5 -155.5t-84.5 -178.5l-133 31l28 158q-47 10 -70.5 49t-23.5 94z" />
<glyph unicode="&#x201c;" horiz-adv-x="829" d="M86 1059q0 78 26 154.5t85 179.5l133 -31l-31 -158q48 -10 72 -49t24 -94q0 -69 -41 -110.5t-116 -41.5q-152 0 -152 150zM434 1059q0 78 26 154.5t85 179.5l133 -31l-29 -158q47 -10 70.5 -49t23.5 -94q0 -69 -41 -110.5t-116 -41.5q-152 0 -152 150z" />
<glyph unicode="&#x201d;" horiz-adv-x="829" d="M86 1219q0 69 41.5 110t116.5 41q151 0 151 -149q0 -79 -25.5 -155.5t-84.5 -178.5l-133 31l28 157q-47 10 -70.5 49.5t-23.5 94.5zM434 1219q0 69 41.5 110t116.5 41q151 0 151 -149q0 -79 -25.5 -155.5t-84.5 -178.5l-133 31l30 157q-48 10 -72 49.5t-24 94.5z" />
<glyph unicode="&#x201e;" horiz-adv-x="829" d="M86 135q0 69 41.5 110.5t116.5 41.5q151 0 151 -150q0 -79 -25.5 -155.5t-84.5 -178.5l-133 31l28 158q-47 10 -70.5 49t-23.5 94zM434 135q0 69 41.5 110.5t116.5 41.5q151 0 151 -150q0 -79 -25.5 -155.5t-84.5 -178.5l-133 31l30 158q-48 10 -72 49t-24 94z" />
<glyph unicode="&#x2022;" horiz-adv-x="561" d="M78 584q0 92 53 144t150 52t149.5 -52t52.5 -144q0 -94 -52 -145.5t-150 -51.5t-150.5 51.5t-52.5 145.5z" />
<glyph unicode="&#x2026;" horiz-adv-x="1329" d="M74 145q0 74 45 118t123 44q81 0 125.5 -43.5t44.5 -118.5q0 -78 -44 -119.5t-126 -41.5q-79 0 -123.5 42t-44.5 119zM494 145q0 74 45 118t123 44q81 0 125 -43.5t44 -118.5q0 -78 -43.5 -119.5t-125.5 -41.5q-79 0 -123.5 42t-44.5 119zM918 145q0 74 45 118t122 44 q81 0 125.5 -43.5t44.5 -118.5q0 -78 -44 -119.5t-126 -41.5q-79 0 -123 42t-44 119z" />
<glyph unicode="&#x202f;" horiz-adv-x="373" />
<glyph unicode="&#x2039;" horiz-adv-x="661" d="M41 453v116l446 367l134 -141l-293 -285l293 -283l-134 -143z" />
<glyph unicode="&#x203a;" horiz-adv-x="661" d="M41 227l293 285l-293 283l133 141l447 -367v-116l-447 -369z" />
<glyph unicode="&#x205f;" horiz-adv-x="466" />
<glyph unicode="&#x20ac;" horiz-adv-x="1095" d="M0 424v172h784v-172h-407q23 -118 93.5 -168.5t211.5 -50.5q86 0 152.5 15.5t150.5 53.5l88 -202q-189 -103 -403 -103q-91 0 -167 13.5t-145.5 46.5t-121.5 84.5t-89.5 130t-54.5 180.5h-92zM0 664v172h96q24 120 76.5 205.5t129.5 133.5t166.5 69.5t201.5 21.5 q209 0 403 -101l-88 -198q-84 38 -150.5 53.5t-152.5 15.5q-138 0 -207 -45.5t-92 -154.5h401v-172h-784z" />
<glyph unicode="&#x2122;" horiz-adv-x="1239" d="M41 1186v133h463v-133h-150v-430h-164v430h-149zM530 756v563h228l108 -358l103 358h229v-563h-162v352l-96 -352h-160l-94 352v-352h-156z" />
<glyph unicode="&#xe000;" horiz-adv-x="1024" d="M0 0v1024h1024v-1024h-1024z" />
</font>
</defs>
</svg>
